<svg version="1.1" viewBox="0 0 1050.7 1233.3" xmlns="http://www.w3.org/2000/svg">
    <path d="m791.25 0-21.193 1.0996c-33.821 1.7551-68.747 11.915-104.69 29.432l-0.0508 0.02539-0.0527 0.02539c-36.192 17.867-66.716 40.644-90.855 68.336-47.286 53.541-74.469 119.2-74.469 182.71 0 8.8399 0.56896 17.261 1.5449 25.232l2.2285 18.205 18.281 1.4863c23.451 1.9061 46.248-0.53321 68.188-6.5859-12.907 4.5148-24.409 8.4114-33.436 11.23-15.983 4.9914-28.578 6.752-25.553 6.752-1.4916 0-11.812-1.5498-25.92-5.707-14.108-4.1572-32.856-10.599-55.855-19.232l-0.043-0.016c-48.119-17.948-87.604-27.734-120.93-27.734h-0.1875l-0.1875 2e-3c-56.097 0.93293-109 15.734-157.29 44.4-48.234 28.627-87.173 68.069-116.02 117.29-36.74 61.419-54.748 134.38-54.748 217.12 0 72.214 13.272 146.47 39.406 222.6l0.0098 0.0274 0.0098 0.0273c24.35 70.322 55.587 132.45 93.834 186.27 7e-3 0.01 0.0126 0.018 0.0195 0.027 3e-3 0 7e-3 0.01 0.01 0.014 34.742 49.112 63.783 84.248 89.234 106.53 38.738 35.949 80.818 55.409 124.05 53.588 28.179-0.9803 61.035-10.025 100.9-26.16l0.0234-0.01c36.369-14.672 69.5-21.586 99.617-21.586 28.4 0 60.566 6.8662 96.592 21.562 39.722 16.328 74.816 24.971 106.11 24.971h0.26367l0.26172-0.01c43.428-1.0146 84.347-19.4 120.22-52.332 23.928-20.867 51.642-54.771 85.57-103.14h2e-3c24.311-34.66 45.319-72.266 63.275-112.72l0.3613-0.2539 2.5176-5.9824c7.6112-18.087 14.748-36.873 21.49-56.426l6.873-19.934-19.443-8.1523c-27.9-11.698-52.826-28.047-75.434-49.504l-0.0957-0.0918-0.0996-0.0918c-49.887-46.229-74.337-102.12-75.09-172.56-4e-5 -5e-3 5e-5 -9e-3 0-0.0137-0.80691-90.311 37.633-156.71 121.8-207.71l20.607-12.486-13.865-19.705c-53.752-76.395-136.55-119.37-241.36-127.84-41.591-3.5235-89.427 5.3745-144.66 25.25l-0.0664 0.0254-0.0664 0.0234c-1.0206 0.3745-1.7352 0.61287-2.7402 0.98046 38.535-17.042 73.833-45.333 104.49-81.176l0.0527-0.0644 0.0547-0.0625c39.253-46.583 62.59-97.987 68.605-152.37l1.6191 0.39453v-28.647c0-8.5728-0.39788-17.339-1.3828-26.229zm-41.352 48.773c-0.34496 53.308-19.444 102.53-59.525 150.11-43.779 51.154-93.012 80.681-145.42 83.08-2.5e-4 -0.11588-0.01-0.22378-0.01-0.33985 0-50.468 22.427-106.78 63.238-152.97l0.0527-0.0606 0.0527-0.0586c19.843-22.779 45.245-41.971 76.869-57.588 22.982-11.194 44.558-18.466 64.746-22.176zm1.4883 278.46c4.3274 0.0338 8.4997 0.22357 12.516 0.56445l0.0938 8e-3c85.595 6.9079 148.63 36.753 193.97 90.527-80.791 56.763-123.34 136.69-122.47 232.81v0.0176l2e-3 0.0176c0.8621 81.013 31.342 151.16 89.404 205.01 21.017 19.93 44.231 36.336 69.461 49.182-4.3433 11.765-8.7855 23.311-13.451 34.408l-0.0156 0.0371c-17.382 40.156-37.887 76.971-61.6 110.78-33.05 47.122-60.2 79.359-78.557 95.303l-0.24024 0.2109-0.23632 0.2149c-29.68 27.295-58.983 39.786-90.732 40.586-22.739-0.055-52.735-6.79-88.76-21.604l-0.0586-0.024c-40.143-16.376-77.978-24.896-113.59-24.896-37.002 0-75.855 8.4734-116.48 24.865h-0.0117-0.0117c-37.185 15.052-66.409 22.264-85.695 22.918h-0.0977-0.0977c-28.899 1.2312-58.725-11.04-91.779-41.777l-0.26172-0.2442-0.27149-0.2344c-20.342-17.742-48.573-51.084-82.416-98.928l-0.0137-0.019-0.0156-0.022c-35.49-49.918-64.876-108.11-88.02-174.95-24.725-72.033-36.949-141.24-36.949-207.93 0-76.321 16.353-140.56 48.432-194.13l0.10938-0.1836c25.272-43.132 58.325-76.543 100.2-101.39v-2e-3h2e-3c41.767-24.792 86.174-37.247 134.85-38.092 24.049 0.0329 59.746 7.9927 105.05 24.891l-0.0449-0.0176c23.623 8.8671 43.153 15.613 58.949 20.268 15.797 4.6548 27.007 7.543 38.641 7.543 12.838 0 21.775-3.43 38.967-8.7988 17.162-5.3595 39.774-13.205 68.094-23.596 0.0126-5e-3 0.0245-7e-3 0.0371-0.0117 44.94-16.169 82.812-23.539 113.1-23.303z" color="#000000" color-rendering="auto" dominant-baseline="auto" image-rendering="auto" shape-rendering="auto" solid-color="#000000" style="font-feature-settings:normal;font-variant-alternates:normal;font-variant-caps:normal;font-variant-ligatures:normal;font-variant-numeric:normal;font-variant-position:normal;isolation:auto;mix-blend-mode:normal;shape-padding:0;text-decoration-color:#000000;text-decoration-line:none;text-decoration-style:solid;text-indent:0;text-orientation:mixed;text-transform:none;white-space:normal"/>
</svg>
