<svg version="1.1" viewBox="0 0 57.36 21.939" xmlns="http://www.w3.org/2000/svg">
    <g transform="translate(-3.5865 -4.487)" fill-rule="evenodd">
        <path d="m56.841 14.684h-2.251v-8.281h2.12v0.927c0.264-0.557 0.926-1.05 1.787-1.113 1.458-0.062 2.45 0.742 2.45 2.472v5.995h-2.317v-6.242c0-0.741 0-1.36-0.53-1.483-0.199-0.062-0.53 0-0.795 0.185-0.331 0.31-0.464 0.68-0.464 1.298zm-39.143-4.141c0 1.545 0 2.781-0.265 3.4-0.199 0.308-0.398 0.494-0.862 0.494-0.397 0-0.662-0.186-0.794-0.495-0.331-0.618-0.331-1.854-0.331-3.399 0-1.483 0-2.78 0.33-3.399 0.133-0.309 0.398-0.494 0.795-0.494 0.464 0 0.663 0.185 0.862 0.494 0.331 0.618 0.265 1.916 0.265 3.4m0.86-3.585c-0.53-0.433-1.192-0.742-1.987-0.742-0.794 0-1.39 0.31-1.986 0.742-0.928 0.742-1.524 2.101-1.524 3.584 0 1.545 0.596 2.843 1.524 3.585 0.596 0.432 1.192 0.741 1.986 0.741 0.795 0 1.458-0.309 1.988-0.741 0.993-0.742 1.523-2.04 1.523-3.585 0-1.483-0.53-2.842-1.523-3.584m23.115 10.877v2.224h-0.463c-0.265-0.927-0.663-1.73-1.723-1.792-0.662-0.061-1.258 0.31-1.324 0.865-0.066 0.557 0.132 1.05 1.324 1.67 1.524 0.802 2.716 1.173 2.716 2.842 0 1.792-1.656 2.658-3.047 2.658h-2.65v-3.09h0.464c0.332 1.606 0.861 2.595 2.12 2.657 0.795 0 1.39-0.433 1.39-1.236 0-0.804-0.529-1.298-1.787-1.978-1.391-0.803-2.252-1.298-2.252-2.41 0-1.483 1.126-2.41 2.914-2.41zm2.914-3.152v-5.995c0-1.73-0.993-2.534-2.45-2.472-0.994 0.062-1.59 0.68-1.855 1.174-0.331-0.865-1.06-1.236-2.12-1.174-0.86 0.062-1.523 0.556-1.788 1.113v-0.927h-2.053v8.28h2.252v-6.24c0-0.618 0.066-0.989 0.464-1.298 0.265-0.185 0.53-0.247 0.728-0.185 0.53 0.123 0.53 0.742 0.53 1.483v6.242h2.252v-6.305c0-0.557 0.132-0.928 0.464-1.237 0.265-0.185 0.53-0.247 0.728-0.185 0.53 0.123 0.596 0.742 0.596 1.483v6.242h2.252zm-22.983 0h2.318v-10.012h-2.318zm7.815-7.601c0.464 0.618 0.464 2.1 0.464 3.275 0 1.236 0.067 2.843-0.463 3.522-0.199 0.248-0.398 0.371-0.729 0.371-0.463 0-0.728-0.494-0.86-1.298-0.067-0.741-0.067-1.668-0.067-2.657 0-1.668 0.132-3.523 0.994-3.523 0.33 0 0.463 0.124 0.662 0.31zm2.717 7.601v-10.012h-2.319v2.349c-0.198-0.433-0.662-0.742-1.324-0.742-1.656 0-2.98 1.607-3.047 4.079-0.066 1.669 0.53 4.45 2.848 4.45 0.927 0 1.457-0.495 1.656-0.928v0.804zm18.015-4.944-0.729 0.432c-0.728 0.433-0.86 0.99-0.927 1.607-0.066 0.495-0.066 0.927 0 1.669 0.066 0.68 0.53 0.803 0.927 0.68 0.464-0.186 0.729-0.989 0.729-1.854zm1.324-3.09c0.597 0.31 0.994 0.803 0.994 1.916v6.118h-2.186v-0.927c-0.264 0.68-0.993 1.112-1.987 1.112-0.794 0-2.185-0.37-2.185-2.286 0-1.793 1.258-2.163 2.65-2.72 1.258-0.494 1.39-0.556 1.39-1.05v-1.36c0-0.556-0.331-0.803-0.994-0.803-0.264 0.062-0.728 0.185-0.728 0.494-0.067 0.371 0.397 0.371 0.464 0.927 0.066 0.866-0.663 1.174-1.325 1.113-0.464 0-0.994-0.247-1.06-0.927-0.066-1.113 1.258-2.04 3.113-2.04 0.861 0 1.391 0.186 1.854 0.433zm-34.11 14.646-0.728 0.433c-0.729 0.433-0.861 0.989-0.928 1.607-0.065 0.494-0.065 0.989 0 1.668 0 0.742 0.464 0.866 0.861 0.68 0.53-0.185 0.795-0.926 0.795-1.854zm1.325-3.09c0.596 0.371 0.927 0.804 0.927 1.916v6.18h-2.118v-0.927c-0.265 0.618-0.993 1.05-1.987 1.05-0.861 0-2.186-0.308-2.186-2.224 0-1.792 1.259-2.163 2.583-2.72 1.325-0.555 1.457-0.617 1.457-1.05v-1.36c0-0.617-0.331-0.864-0.993-0.803-0.265 0-0.728 0.124-0.728 0.433-0.067 0.433 0.397 0.433 0.463 0.989 0.066 0.803-0.662 1.112-1.325 1.112-0.463-0.062-0.993-0.309-1.06-0.989-0.066-1.05 1.259-1.978 3.113-1.978 0.862 0 1.391 0.124 1.855 0.372zm16.029 2.102c0-1.73-0.994-2.596-2.451-2.472-0.728 0.061-1.325 0.37-1.656 0.803v-2.41h-2.253v5.686c0 2.1-1.59 4.078-3.18 4.016-1.125 0-1.39-0.803-1.523-1.668-0.198-1.236-0.198-2.657-0.066-4.203 0.133-0.988 0.398-1.792 1.193-1.792 0.596 0 0.662 0.371 0.397 0.618-0.265 0.31-0.662 0.618-0.464 1.298 0.199 0.742 1.457 0.865 2.054 0.31 0.463-0.495 0.397-1.299 0.066-1.793-0.398-0.618-1.06-0.865-2.053-0.865-1.259 0-3.643 1.05-3.643 4.387 0 3.585 2.45 4.203 3.841 4.203 1.59 0 2.98-1.298 3.378-2.349v2.225h2.252v-6.242c0-0.617 0.132-0.988 0.464-1.298 0.265-0.185 0.596-0.247 0.795-0.185 0.53 0.124 0.53 0.742 0.53 1.483v6.242h2.318v-5.994zm-23.182-15.821v3.523h-0.464c-0.397-1.73-1.258-3.029-2.45-3.09-0.795-0.062-1.259 0.37-1.656 0.988-0.397 0.742-0.596 2.287-0.596 4.14 0 1.731 0.066 3.029 0.265 3.956 0.132 0.433 0.463 1.112 1.324 1.112 0.464 0 0.795-0.123 0.994-0.37 0.33-0.371 0.397-1.113 0.397-1.607v-1.669c0-0.618-0.198-0.988-0.53-1.174-0.264-0.124-0.662-0.124-0.86-0.186v-0.432h3.708v8.838h-0.463c-0.199-0.68-0.331-1.175-0.663-1.731-0.33-0.556-0.927-1.174-1.92-1.174-1.06-0.062-1.855 0.556-1.855 1.483 0 1.236 0.795 1.545 2.252 2.287 1.391 0.741 3.18 1.36 3.18 3.522 0 2.101-1.922 3.4-4.107 3.4h-3.51v-4.265h0.463c0.596 3.214 2.053 3.77 3.047 3.77 1.258 0 1.854-0.742 1.854-1.792-0.066-1.36-1.06-1.854-2.45-2.534-1.987-1.05-2.914-1.545-2.914-3.275 0.066-1.484 1.324-2.41 2.715-2.781-2.914-0.31-3.775-2.781-3.709-5.439 0-2.657 1.656-5.5 4.901-5.5z" style=""/>
    </g>
</svg>
