<svg xmlns="http://www.w3.org/2000/svg" version="1.1" viewBox="0 0 120.49 92.692">
    <g data-name="Layer 2" transform="translate(-13.156 -13.068)">
        <path d="m36.35 105.26v-6a3.56 3.56 0 0 0-3.76-3.8 3.7 3.7 0 0 0-3.36 1.7 3.51 3.51 0 0 0-3.16-1.7 3.16 3.16 0 0 0-2.8 1.42v-1.18h-2.08v9.56h2.1v-5.26a2.24 2.24 0 0 1 2.34-2.54c1.38 0 2.08 0.9 2.08 2.52v5.32h2.1v-5.3a2.25 2.25 0 0 1 2.34-2.54c1.42 0 2.1 0.9 2.1 2.52v5.32zm31.07-9.56h-3.42v-2.9h-2.1v2.9h-1.9v1.9h1.94v4.4c0 2.22 0.86 3.54 3.32 3.54a4.88 4.88 0 0 0 2.6-0.74l-0.6-1.78a3.84 3.84 0 0 1-1.84 0.54c-1 0-1.38-0.64-1.38-1.6v-4.36h3.4zm17.74-0.24a2.82 2.82 0 0 0-2.52 1.4v-1.16h-2.06v9.56h2.08v-5.36c0-1.58 0.68-2.46 2-2.46a3.39 3.39 0 0 1 1.3 0.24l0.64-2a4.45 4.45 0 0 0-1.48-0.26zm-26.82 1a7.15 7.15 0 0 0-3.9-1c-2.42 0-4 1.16-4 3.06 0 1.56 1.16 2.52 3.3 2.82l1 0.14c1.14 0.16 1.68 0.46 1.68 1 0 0.74-0.76 1.16-2.18 1.16a5.09 5.09 0 0 1-3.18-1l-1 1.62a6.9 6.9 0 0 0 4.14 1.24c2.76 0 4.36-1.3 4.36-3.12s-1.26-2.56-3.34-2.86l-1-0.14c-0.9-0.12-1.62-0.3-1.62-0.94s0.68-1.12 1.82-1.12a6.16 6.16 0 0 1 3 0.82zm55.71-1a2.82 2.82 0 0 0-2.52 1.4v-1.16h-2.06v9.56h2.08v-5.36c0-1.58 0.68-2.46 2-2.46a3.39 3.39 0 0 1 1.3 0.24l0.64-2a4.45 4.45 0 0 0-1.48-0.26zm-26.8 5a4.83 4.83 0 0 0 5.1 5 5 5 0 0 0 3.44-1.14l-1-1.68a4.2 4.2 0 0 1-2.5 0.86 3.07 3.07 0 0 1 0-6.12 4.2 4.2 0 0 1 2.5 0.86l1-1.68a5 5 0 0 0-3.44-1.14 4.83 4.83 0 0 0-5.1 5zm19.48 0v-4.76h-2.08v1.16a3.63 3.63 0 0 0-3-1.4 5 5 0 0 0 0 10 3.63 3.63 0 0 0 3-1.4v1.16h2.08zm-7.74 0a2.89 2.89 0 1 1 2.9 3.06 2.87 2.87 0 0 1-2.9-3.06zm-25.1-5a5.0005 5.0005 0 0 0 0.14 10 5.81 5.81 0 0 0 3.97-1.3l-1-1.54a4.55 4.55 0 0 1-2.78 1 2.65 2.65 0 0 1-2.86-2.34h7.1v-0.8c0-3-1.86-5-4.54-5zm0 1.86a2.37 2.37 0 0 1 2.42 2.32h-5a2.46 2.46 0 0 1 2.54-2.32zm52.11 3.16v-8.62h-2v5a3.63 3.63 0 0 0-3-1.4 5 5 0 0 0 0 10 3.63 3.63 0 0 0 3-1.4v1.16h2zm3.47 3.39a1 1 0 0 1 0.38 0.07 1 1 0 0 1 0.31 0.2 1 1 0 0 1 0.21 0.3 0.93 0.93 0 0 1 0 0.74 1 1 0 0 1-0.21 0.3 1 1 0 0 1-0.31 0.2 0.94 0.94 0 0 1-0.38 0.08 1 1 0 0 1-0.9-0.58 0.94 0.94 0 0 1 0-0.74 1 1 0 0 1 0.21-0.3 1 1 0 0 1 0.31-0.2 1 1 0 0 1 0.41-0.07zm0 1.69a0.71 0.71 0 0 0 0.29-0.06 0.75 0.75 0 0 0 0.23-0.16 0.74 0.74 0 0 0 0-1 0.74 0.74 0 0 0-0.23-0.16 0.72 0.72 0 0 0-0.29-0.06 0.75 0.75 0 0 0-0.29 0.06 0.73 0.73 0 0 0-0.24 0.16 0.74 0.74 0 0 0 0 1 0.74 0.74 0 0 0 0.24 0.16 0.74 0.74 0 0 0 0.32 0.06zm0.06-1.19a0.4 0.4 0 0 1 0.26 0.08 0.25 0.25 0 0 1 0.09 0.21 0.24 0.24 0 0 1-0.07 0.18 0.35 0.35 0 0 1-0.21 0.09l0.29 0.33h-0.23l-0.27-0.33h-0.09v0.33h-0.19v-0.88zm-0.22 0.17v0.24h0.22a0.21 0.21 0 0 0 0.12 0 0.1 0.1 0 0 0 0-0.09 0.1 0.1 0 0 0 0-0.09 0.21 0.21 0 0 0-0.12 0zm-11-4.06a2.89 2.89 0 1 1 2.9 3.06 2.87 2.87 0 0 1-2.9-3.06zm-70.23 0v-4.78h-2.08v1.16a3.63 3.63 0 0 0-3-1.4 5 5 0 0 0 0 10 3.63 3.63 0 0 0 3-1.4v1.16h2.08zm-7.74 0a2.89 2.89 0 1 1 2.9 3.06 2.87 2.87 0 0 1-2.92-3.06z"/>
        <path d="m49.332 13.156c-18.904 1.0177-36.176 16.287-36.176 37.998 0 31.579 36.65 49.393 61.48 29.879v-2e-3l1.998-1.5742-2-1.5703c-8.2062-6.4408-12.993-16.293-12.984-26.725v-4e-3c-0.011124-10.435 4.7756-20.291 12.984-26.734h2e-3l1.998-1.5762-1.998-1.5703h-2e-3c-7.7593-6.0975-16.711-8.5837-25.303-8.1211zm0.18555 3.9648c7.0041-0.37066 14.207 1.5749 20.742 6.0781-7.8935 7.1608-12.62 17.209-12.609 27.959-1e-6 6.56e-4 0 0.0013 0 2e-3 0 6.56e-4 -1e-6 0.0013 0 2e-3 -0.0073 10.755 4.7255 20.809 12.629 27.969-22.308 15.373-53.123-0.24666-53.123-27.977 0-19.598 15.459-33.139 32.361-34.033z"/>
        <path d="m95.889 13.068v0.13672c-8.1057-0.0939-16.438 2.3436-23.725 8.0723l-2.002 1.5723 2.002 1.5723c17.359 13.643 17.359 39.822 0 53.465l-1.998 1.5703 1.998 1.5742v2e-3c24.829 19.52 61.486 1.71 61.486-29.873v-0.0098c-5.1e-4 -21.713-17.276-36.983-36.182-37.998zm1.3965 4.0488c16.904 0.8922 32.365 14.433 32.365 34.033v0.0098c-6.5e-4 27.683-30.709 43.288-53.006 28.051 16.53-14.987 16.537-41.095 0.02148-56.092 6.5027-4.4433 13.659-6.3693 20.619-6.002z"/>
        <path d="m128.21 73.46v-1.16h0.47v-0.24h-1.19v0.24h0.51v1.16zm2.31 0v-1.4h-0.36l-0.42 1-0.42-1h-0.32v1.4h0.26v-1.05l0.39 0.91h0.27l0.39-0.91v1.06z"/>
    </g>
</svg>