<?xml version="1.0" encoding="UTF-8" standalone="no"?>
<svg
   xmlns:dc="http://purl.org/dc/elements/1.1/"
   xmlns:cc="http://creativecommons.org/ns#"
   xmlns:rdf="http://www.w3.org/1999/02/22-rdf-syntax-ns#"
   xmlns:svg="http://www.w3.org/2000/svg"
   xmlns="http://www.w3.org/2000/svg"
   xmlns:sodipodi="http://sodipodi.sourceforge.net/DTD/sodipodi-0.dtd"
   xmlns:inkscape="http://www.inkscape.org/namespaces/inkscape"
   id="Layer_1"
   data-name="Layer 1"
   viewBox="0 0 440.04999 76.83078"
   version="1.1"
   sodipodi:docname="Monzo_logo_logotype_RGB_white-trimmed.svg"
   width="440.04999"
   height="76.83078"
   inkscape:version="0.92.4 (f8dce91, 2019-08-02)">
  <metadata
     id="metadata26">
    <rdf:RDF>
      <cc:Work
         rdf:about="">
        <dc:format>image/svg+xml</dc:format>
        <dc:type
           rdf:resource="http://purl.org/dc/dcmitype/StillImage" />
      </cc:Work>
    </rdf:RDF>
  </metadata>
  <sodipodi:namedview
     pagecolor="#ffffff"
     bordercolor="#666666"
     borderopacity="1"
     objecttolerance="10"
     gridtolerance="10"
     guidetolerance="10"
     inkscape:pageopacity="0"
     inkscape:pageshadow="2"
     inkscape:window-width="1920"
     inkscape:window-height="1015"
     id="namedview24"
     showgrid="false"
     inkscape:zoom="1.7710438"
     inkscape:cx="272.27651"
     inkscape:cy="9.2733525"
     inkscape:window-x="0"
     inkscape:window-y="0"
     inkscape:window-maximized="1"
     inkscape:current-layer="Layer_1" />
  <defs
     id="defs7">
    <style
       id="style2">.cls-1{fill:none;}.cls-2{clip-path:url(#clip-path);}.cls-3{fill:#fff;}</style>
    <clipPath
       id="clip-path">
      <rect
         class="cls-1"
         width="594"
         height="230"
         id="rect4"
         x="0"
         y="0"
         style="fill:none" />
    </clipPath>
  </defs>
  <title
     id="title9">Artboard 7</title>
  <g
     class="cls-2"
     clip-path="url(#clip-path)"
     id="g21"
     transform="translate(-77,-76.69439)">
    <path
       class="cls-3"
       d="m 77,151.61 v -73 h 19.47 v 9.79 c 4.49,-7.48 11,-11.15 19.85,-11.15 8.85,0 15.49,3.82 20.25,11.75 7.61,-8 13.46,-11.69 22.57,-11.69 16.44,0 25.69,9.24 25.69,26.23 v 48.12 h -20.94 v -39.6 c 0,-10.2 -2.17,-14.82 -10.19,-14.82 -8.02,0 -12.51,5 -12.51,14.82 v 39.55 h -21.06 v -39.55 c 0,-10.2 -2.18,-14.82 -10.2,-14.82 -8.02,0 -12.5,5 -12.5,14.82 v 39.55 z"
       id="path11"
       inkscape:connector-curvature="0"
       style="fill:#ffffff" />
    <path
       class="cls-3"
       d="m 211.14,88.13 a 38.53,38.53 0 0 1 65.92,26.51 c 0,11 -3.67,20.12 -11,27.46 a 37.84,37.84 0 0 1 -27.72,11.42 c -11.15,0 -20.12,-3.81 -27.6,-11.69 A 38.15,38.15 0 0 1 200,114.91 37.46,37.46 0 0 1 211.14,88.13 Z m 27.32,45 c 9.52,0 17.26,-8 17.26,-17.95 0,-9.95 -7.72,-18.07 -17.26,-18.07 -9.54,0 -17.26,8 -17.26,18.07 0,10.07 7.88,17.95 17.26,17.95 z"
       id="path13"
       inkscape:connector-curvature="0"
       style="fill:#ffffff" />
    <path
       class="cls-3"
       d="m 292.23,151.61 v -73 h 20.39 l -0.27,9.79 c 4.49,-7.34 11.28,-11.15 20.93,-11.15 15.09,0 24.88,9.52 24.88,26.23 v 48.12 h -21.48 v -39.54 c 0,-10.2 -2.17,-14.82 -10.47,-14.82 -8.3,0 -12.91,5 -12.91,14.82 v 39.55 z"
       id="path15"
       inkscape:connector-curvature="0"
       style="fill:#ffffff" />
    <path
       class="cls-3"
       d="m 451.12,88.13 a 38.54,38.54 0 0 1 65.93,26.51 c 0,11 -3.67,20.12 -11,27.46 a 37.88,37.88 0 0 1 -27.73,11.42 c -11.15,0 -20.12,-3.81 -27.59,-11.69 A 38.15,38.15 0 0 1 440,114.91 37.45,37.45 0 0 1 451.12,88.13 Z m 27.33,45 c 9.51,0 17.26,-8 17.26,-17.95 0,-9.95 -7.71,-18.07 -17.26,-18.07 -9.55,0 -17.27,8 -17.27,18.07 0,10.07 7.89,17.95 17.27,17.95 z"
       id="path17"
       inkscape:connector-curvature="0"
       style="fill:#ffffff" />
    <path
       class="cls-3"
       d="m 374.78,151.61 v -15.22 l 30,-38.88 h -30 V 78.62 H 429 v 17.26 l -26.51,36.84 h 27.05 v 18.89 z"
       id="path19"
       inkscape:connector-curvature="0"
       style="fill:#ffffff" />
  </g>
</svg>
