<svg version="1.1" viewBox="0 0 76.714 13.453" xmlns="http://www.w3.org/2000/svg">
    <path d="m0 13.118v-12.77h3.403v1.714c0.786-1.3 1.928-1.952 3.475-1.952s2.713 0.667 3.546 2.047c1.333-1.404 2.356-2.047 3.95-2.047 2.88 0 4.5 1.618 4.5 4.594v8.425h-3.665v-6.926c0-1.785-0.38-2.594-1.785-2.594-1.428 0-2.2 0.88-2.2 2.594v6.926h-3.7v-6.926c0-1.785-0.38-2.594-1.785-2.594-1.428 0-2.2 0.88-2.2 2.594v6.926zm23.398-11.115c1.9-1.93 4.793-2.53 7.314-1.515a6.75 6.75 0 0 1 4.23 6.156c0 1.928-0.643 3.522-1.928 4.808-1.274 1.307-3.03 2.03-4.855 2-1.952 0-3.522-0.667-4.832-2.047a6.68 6.68 0 0 1-1.88-4.713 6.55 6.55 0 0 1 1.952-4.689zm4.784 7.878c1.666 0 3.023-1.404 3.023-3.142 0-1.762-1.357-3.165-3.023-3.165s-3.023 1.404-3.023 3.165c0 1.738 1.38 3.142 3.023 3.142zm9.332 3.237v-12.77h3.57l-0.048 1.714c0.786-1.285 1.975-1.952 3.665-1.952 2.642 0 4.356 1.666 4.356 4.594v8.425h-3.76v-6.926c0-1.785-0.38-2.594-1.833-2.594-1.476 0-2.26 0.88-2.26 2.594v6.926zm27.656-11.115c1.9-1.932 4.793-2.53 7.314-1.516a6.75 6.75 0 0 1 4.23 6.157c0 1.928-0.643 3.522-1.928 4.808-1.274 1.307-3.03 2.03-4.855 2-1.952 0-3.523-0.667-4.832-2.047a6.68 6.68 0 0 1-1.88-4.713 6.55 6.55 0 0 1 1.952-4.689zm4.784 7.878c1.666 0 3.023-1.404 3.023-3.142 0-1.762-1.357-3.165-3.023-3.165s-3.023 1.404-3.023 3.165c0 1.738 1.38 3.142 3.023 3.142zm-18.06 3.237v-2.666l5.26-6.807h-5.26v-3.297h9.497v3.023l-4.64 6.45h4.736v3.308z"/>
</svg>
