<?xml version="1.0" encoding="utf-8"?>
<!-- Generator: Adobe Illustrator 18.1.1, SVG Export Plug-In . SVG Version: 6.00 Build 0)  -->
<svg version="1.1" id="Layer_1" xmlns="http://www.w3.org/2000/svg" xmlns:xlink="http://www.w3.org/1999/xlink" x="0px" y="0px"
	 viewBox="0 0 500 80.2" enable-background="new 0 0 500 80.2" xml:space="preserve">
<g>
	<g>
		<path fill="#FFFFFF" d="M260,1.2c-1.7,0.6-8.4,2.9-11.4,4c0,0,0,11.9,0,15.3c-1.3,0-6.1,0-8.4,0c0,1.2,0,9.1,0,10.1
			c2.1,0,6.3,0,8.4,0c0,1.5,0,17.6,0,34.1c0,11.6,7.4,14.9,13.7,14.9c5.2,0,8.4-0.4,12.1-1.3c0-1.3,0-7.8,0-10
			c-1.5,0.5-3.6,0.9-6.1,0.9c-4.5,0-8.1-0.9-8.1-7.3c0-1.9,0-28.4,0-31.3c1,0,11.7,0,14.2,0c0-1.3,0-9.1,0-10.1
			c-1.6,0-12.3,0-14.3,0C260,19.3,260,4.6,260,1.2z"/>
		<path fill="#FFFFFF" d="M341.8,51.8c-0.7,3.1-1,5.2-1.2,6.2c-0.2-1-0.7-3.2-1.4-6.2c-3.4-13.4-12.1-47.5-12.8-50.4
			c-2.5,0-8.4,0-11.5,0c-0.5,2.1-9.2,36.8-12.6,50.4c-0.8,3.1-1.3,5.9-1.4,6.2c-0.1-0.3-0.6-3.1-1.2-6.2
			c-2.6-13.2-9.3-46.5-10.1-50.5c-2.4,0-10.8,0.1-12,0.1c0,0,14.5,69.2,16.1,76.9c2.7,0,9.2,0,11.9,0c0.6-2.1,9.9-38.4,13.4-52
			c0.7-2.9,1.2-5.2,1.3-5.6c0.1,0.4,0.6,2.7,1.3,5.5c3.4,13,12.1,46.8,13.3,52.1c1.9,0,9,0,12,0c0.7-3.7,14.7-72.9,15.4-76.9
			c-1.8,0-8.5-0.1-11.4-0.1C350.8,2.9,344.3,38.2,341.8,51.8z"/>
		<path fill="#FFFFFF" d="M212.3,19.2c-6.4,0-12.8,1-17.4,3c0,1.1,0,9,0,10.2c3.1-1.5,10.6-3,15.5-3c12.8,0,12.9,5.6,12.9,11.8
			c-1.6,0-6.3,0-13.2,0c-14.9,0-23,9.1-23,18.9c0,13.5,11.1,19.3,20.2,19.3c8.2,0,12.8-3.8,16-7c0,1.7,0,3,0,5.7c1.1,0,9.8,0,11.4,0
			c0-3.1,0-21.3,0-39.4C234.7,20.8,218.6,19.2,212.3,19.2z M223.3,62c-2.8,3.5-7.8,7.3-14.4,7.3c-6.6,0-10.1-4.1-10.1-9.1
			c0-5,3.7-8.9,12.1-8.9c2.9,0,10.8,0,12.4,0C223.3,53.4,223.3,60.7,223.3,62z"/>
		<path fill="#FFFFFF" d="M167.4,1.4c0,1.6,0,53.5,0,52.9c0,0.7-0.1,2.8,0.1,4.7c-0.9-1.9-2-3.6-2.3-4.2c-1-1.7-31.2-50.3-33-53.4
			c-1.9,0-9.1,0-11.5,0c0,1.9,0,76.1,0,76.9c1.2,0,10.3,0,11.2,0c0-1.7,0-51.7,0-52.8c0-1.1,0-3.2-0.1-4.5c0.6,1.2,1.6,2.9,2.3,4.2
			c0.7,1.2,31.5,50,33.3,53.1c1.8,0,9.2,0,11.2,0c0-2.3,0.1-74.5,0-76.9C177.3,1.4,169.7,1.4,167.4,1.4z"/>
		<path fill="#FFFFFF" d="M390.3,19.4c-8.8,0-26.1,5.8-26.1,30.2c0,25,17.5,29.9,27,29.9c9.5,0,13.8-1.9,18.3-4c0-1.8,0-7.6,0-10.5
			c-2.8,1.7-8.9,4.3-16.5,4.3c-13.4,0-16.8-9.2-16.8-15.7c2.8,0,33.5,0,38.1,0C416.4,38.9,410.4,19.4,390.3,19.4z M376.2,44
			c0-6.4,4.4-14.5,13.5-14.5c9.8,0,13,9,13,14.5C397.1,44,378.6,44,376.2,44z"/>
		<path fill="#FFFFFF" d="M500,30.5c0-1.3,0-9.7,0-10.1c-1.6,0-13,0-14.3,0c0-1.2,0-15.9,0-19.3c-1.7,0.6-8.4,2.9-11.4,4
			c0,0,0,11.9,0,15.3c-1.2,0-6.1,0-8.4,0c0,1.2,0,9.3,0,10.1c2.1,0,6.3,0,8.4,0c0,1.5,0,17.6,0,34.1c0,11.6,7.4,14.9,13.7,14.9
			c5.2,0,8.4-0.4,12-1.3c0-1.3,0-7.8,0-10c-1.5,0.5-3.6,0.9-6.1,0.9c-4.5,0-8.1-0.9-8.1-7.3c0-1.9,0-28.4,0-31.3
			C486.7,30.5,497.5,30.5,500,30.5z"/>
		<path fill="#FFFFFF" d="M449.5,45.7c-1.9-0.8-4.1-1.8-7.4-3.2c-3.3-1.5-8.4-3.4-8.4-7.6c0-3.8,3.8-5.6,9.1-5.6
			c5.3,0,10.2,1.2,15.7,3.9c0-0.9,0-8.8,0-10.7c-2.4-1.2-9.1-3.1-16.1-3.1c-15.5,0-20.5,9.6-20.5,16c0,9.9,7.1,13.5,11,15.3
			c4.6,2.1,6.9,3.1,10.4,4.6c5.1,2.2,7.8,3.5,7.8,7.6c0,3.7-3,6.7-10.2,6.7c-7,0-14.1-2.7-18-4.8c0,1.8,0,7.9,0,10.9
			c4.9,2.3,11.9,3.9,18.4,3.9c14.6,0,21.7-9,21.7-17.1C462.9,54.2,459,49.8,449.5,45.7z"/>
	</g>
	<g>
		<g>
			<path fill="#D70028" d="M56.1,45c0.1,0.2,0.4,0.4,0.6,0.4c0.3,0,0.5-0.1,0.6-0.3l11.5-20c0.5-0.8,0.5-1.9,0-2.8L57.7,2.9
				C57.2,2,56.2,1.4,55,1.4h-1c0.9,0,1.7,0.7,1.7,1.7c0,0.3-0.1,0.5-0.2,0.8L45.3,21.2c-0.8,1.6-0.9,3.6,0.1,5.3L56.1,45z"/>
			<path fill="#D70028" d="M37.7,34.5c0.1-0.2,0.1-0.5,0-0.7c-0.1-0.2-0.4-0.4-0.6-0.4H14c-0.9,0-1.8,0.5-2.3,1.4L0.4,54.2
				c-0.5,0.9-0.6,2.1,0,3.1l0.5,0.8c-0.5-0.7-0.2-1.8,0.6-2.2c0.2-0.1,0.5-0.2,0.7-0.2h20.2c1.8-0.1,3.6-1,4.5-2.7L37.7,34.5z"/>
			<path fill="#D70028" d="M37.9,55.7c-0.3,0-0.5,0.2-0.6,0.4c-0.1,0.2-0.1,0.5,0,0.7l11.5,20c0.5,0.8,1.4,1.4,2.4,1.4l22.4,0
				c1.1,0,2.1-0.6,2.7-1.6l0.5-0.8c-0.5,0.7-1.5,1-2.3,0.5c-0.2-0.1-0.4-0.3-0.6-0.5l-10-17.5c-1-1.5-2.7-2.6-4.7-2.6H37.9z"/>
		</g>
		<g>
			<path fill="#D70028" d="M45.3,21.2L55.5,3.8c0.1-0.2,0.2-0.5,0.2-0.8c0-0.9-0.7-1.7-1.7-1.7H32.6c-1,0-2,0.5-2.4,1.4l-11.6,20
				c-0.1,0.2-0.1,0.5,0,0.7c0.1,0.2,0.3,0.4,0.6,0.4l21.6,0c1.9,0,3.6,1.1,4.5,2.6l0.1,0.1C44.4,24.9,44.5,22.8,45.3,21.2z"/>
			<path fill="#D70028" d="M22.5,55.7H2.3c-0.3,0-0.5,0-0.7,0.2c-0.8,0.5-1.1,1.5-0.6,2.2l10.8,18.6c0.5,0.9,1.4,1.5,2.3,1.5l23.1,0
				c0.3,0,0.5-0.2,0.6-0.4c0.1-0.2,0.1-0.5,0-0.7L26.9,58.4c-0.9-1.6-0.8-3.6,0-5.2L27,53C26.1,54.7,24.3,55.7,22.5,55.7z"/>
			<path fill="#D70028" d="M63.9,58.3l10,17.5c0.1,0.1,0.3,0.3,0.6,0.5c0.8,0.5,1.8,0.2,2.3-0.5l10.7-18.6c0.5-0.9,0.5-2,0-2.8
				L76,34.4c-0.1-0.2-0.4-0.3-0.6-0.3c-0.3,0-0.5,0.1-0.6,0.3L63.9,53.1c-0.9,1.7-2.7,2.6-4.5,2.6h-0.2C61.2,55.7,63,56.7,63.9,58.3
				z"/>
		</g>
	</g>
</g>
</svg>
