<svg version="1.0" viewBox="0 0 189.91 50.408" xmlns="http://www.w3.org/2000/svg">
    <path d="m19.509 7.4c-3.9 0.1-8.2 0.5-9.4 0.8 1.2-0.3 5.5-0.7 9.4-0.8m2.4 5.6h-2.2c-0.2 0.9-0.3 1.8-0.4 2.7l-1.6 9.7h2.7c3.5 0 6.1-2.9 6.1-7.3 0-3.1-1.8-5.1-4.6-5.1m29.8 10.5c-1.6 0-2.7 3.1-3.3 5.6h0.9c2 0 3.6-1.3 3.8-2.9v-0.6c0-0.5-0.1-1-0.4-1.4-0.1-0.4-0.5-0.7-1-0.7m52.3 0.4c-0.1 0-0.1-0.1-0.2-0.1-0.1-0.1-0.3-0.1-0.4-0.1-0.3 0-0.6 0.1-0.8 0.3-0.1 0.1-0.2 0.1-0.3 0.2s-0.1 0.2-0.2 0.2c-0.5 0.7-0.9 1.4-1.1 2.2-0.1 0.1-0.1 0.3-0.2 0.5-0.2 0.5-0.3 1.1-0.5 1.6-0.1 0.4-0.2 0.9-0.3 1.3-0.2 1.4-0.4 2.9-0.4 4.4 0 0.7 0 1.5 0.1 2.2 0 0.2 0 0.3 0.1 0.5 0.1 0.4 0.2 0.8 0.3 1.2l0.3 0.6c0.3 0.6 0.6 0.9 1 0.9 0.2 0 0.3 0 0.5-0.1s0.4-0.2 0.6-0.4c0.6-0.7 1.2-1.9 1.7-3.5l0.3-1.2 0.3-1.5c0.1-0.7 0.2-1.4 0.2-2.1 0.1-0.7 0.1-1.3 0.1-2 0.1-1.4-0.1-2.9-0.6-4.3 0-0.2-0.2-0.6-0.5-0.8m76.6 8.8 0.5-3.4c2.2-0.2 3.9-0.6 5.2-1.5 1.6-1 3.6-2.9 3.6-6.6 0-2-0.5-3.9-1.4-5.6-1-1.8-2.9-2.9-4.9-2.9h-0.3c-0.1-3-2.6-5.3-5.6-5.4-2.8 0-5.6 0.2-8.3 0.6-2.4 0.4-4.3 2.6-4.7 5 0 0.1-6.4 0-10.6 0-3.3 0-5 1.6-5 1.6s-1.6-2.1-5.9-1.6c-2.1 0.1-4.1 0.4-6.2 0.8 0.4-2.6 0.7-5.2 0.8-7.8v-0.2c0-3.1-2.5-5.6-5.6-5.7-4.1 0-8.8 0.6-11.2 1.1-2.6 0.7-4.4 3.1-4.3 5.8 0.1 2.4-1 9.6-1 9.6-2.6-2.2-6.1-3.4-10.1-3.4-3.6 0-7.2 0.8-10.4 2.5-1.1-1.2-2.7-2-4.3-1.9-3.2 0-5.6 0-7.9 0.2-1.8 0.1-3.4 1.1-4.4 2.7-0.1-0.1-0.1-0.2-0.2-0.3-1-1.8-2.9-2.9-4.9-2.9-4.2 0-11.5 1.2-11.8 1.4-2.5-1.1-5.2-1.7-8-1.6-4.1-0.1-8.1 1-11.5 3.1-0.6-8.5-7.9-14.3-18.3-14.3 0 0-12.7 0.5-15 1-2.7 0.6-4.6 3.1-4.4 5.8 0 1.9-0.1 3.9-0.5 6l-3.7 23.8c-0.3 1.4-1 5.7 1.7 8.9 1.1 1.3 3.1 2.8 6.6 2.8 1.6 0 5.9-0.2 9.4-1.8 0.9-0.4 1.7-1.1 2.3-1.9 1.9 2.2 4.7 3.8 8.8 3.8 3.6 0 7.1-0.9 10.3-2.5 2.9 1.7 6.2 2.6 9.6 2.5 6.1 0 11.8-2.4 15.4-6.5 2 5.1 5.7 6.3 8.7 6.3 2.5 0 5.5-0.3 8.5-1.8 2.5-1.2 3.6-5.3 4.1-6.2 2.5 5 7.5 8.1 13.8 8.1 5 0 9.9-1.6 13.9-4.8 0.3 0.5 0.6 0.9 0.9 1.3 1.3 1.5 3.8 3.3 8.1 3.3 3.1 0.1 6.2-0.8 8.7-2.5 1.4 1.4 3.7 2.7 7.2 2.7 2.6 0 5.2-0.7 7.5-1.9 1.7 1.2 3.9 1.8 6.5 1.8 4.1 0 7.8-1.4 10.2-3.9 2 2 5.5 4 11.5 4 5.5 0 11-3.5 13.8-8.2 2.2-3.5-0.2-9.7-7.2-9.4m-144.1-14.7c-0.3 4.4-3.1 8-7.4 10.3l3.9 10.3c1.1 2.8 1.8 3.9 3 4.8-0.3 0.2-0.6 0.3-0.9 0.4-1.9 0.6-4 1-6 0.9-2 0-4.7-0.5-6.4-5.4l-2.9-8.4h-2.9l-1.3 8c-0.2 0.9-0.3 1.8-0.3 2.7v0.2c0 0.5 0.1 1 0.3 1.5-2.2 1-5.2 1.3-7 1.3-1.5 0-2.9-0.5-3-3.1 0-0.7 0.1-1.4 0.2-2.1l3.7-23.8c0.3-1.8 0.5-3.7 0.5-5.5v-1.9c1.2-0.3 5.5-0.8 9.4-0.8h0.7 3.6c2.6-0.1 5.1 0.5 7.5 1.5 0.6 0.3 1.3 0.7 1.8 1.1s1 0.9 1.5 1.4c0.6 0.8 1.1 1.6 1.5 2.6 0.3 1 0.5 2 0.5 3.1v0.9m14.3 16c-0.4 0-0.8 0.1-1.1 0.1h-0.2-1.3-0.1v0.6c0.2 2.8 1.4 5.2 4 5.2h0.6c2.5-0.3 4-2.1 5.3-2.1 0.6 0.1 1.2 0.3 1.7 0.6l1.3 0.8c-0.9 1.3-2 2.4-3.4 3.2-2.6 1.7-5.6 2.5-8.7 2.5-6.6 0-10.6-3.7-10.9-9.6v-1c0-7.5 4.9-15.7 15.8-15.7 1.6 0 3.2 0.2 4.6 0.7 2.6 0.9 4.1 2.8 4.1 5.3 0.1 3-1.8 8.5-11.7 9.4m30.3 4.8c-0.9 1.5-1.7 3.1-2.3 4.8-1.8 0.9-3.8 1.1-5.8 1.1-1.7 0-3.3-0.8-4.1-5.2l-2.5-12.5c-0.5-2.5-1.3-5-2.3-7.4 0.9-0.2 1.8-0.4 2.7-0.5 0.2 0 0.4-0.1 0.6-0.1h0.1c0.2 0 0.4 0 0.7-0.1h0.1c0.5 0 1-0.1 1.6-0.1h0.1 0.7 0.2 0.6 0.3 0.6 0.3 0.9c0.4 0.8 0.8 1.6 1.1 2.4 0.1 0.3 0.2 0.5 0.3 0.8 0.2 0.6 0.3 1.2 0.4 1.8l1.7 11.4c1.4-2.7 2.7-5.5 3.9-8.3 0.8-1.9 1.5-3.8 2-5.8 0.2-0.7 0.3-1.3 0.5-2 0.6-0.1 1.2-0.1 1.8-0.1h1 0.8 1.4 0.3 1.7 0.4c-0.2 1.7-0.6 3.3-1.3 4.9-2.4 5.1-5.4 10-8.5 14.9m31.1 0.1c-0.9 1.2-2 2.2-3.2 3-0.2 0.2-0.5 0.3-0.7 0.5 0 0-0.1 0-0.1 0.1-0.2 0.1-0.4 0.3-0.6 0.4 0 0-0.1 0-0.1 0.1-0.2 0.1-0.4 0.2-0.7 0.3 0 0-0.1 0-0.1 0.1-0.3 0.1-0.5 0.2-0.8 0.3-0.5 0.2-1.1 0.4-1.7 0.6-0.1 0-0.1 0-0.2 0.1-0.2 0.1-0.4 0.1-0.6 0.2-0.1 0-0.2 0-0.3 0.1-0.2 0-0.4 0.1-0.6 0.1-0.1 0-0.2 0-0.3 0.1-0.2 0-0.4 0.1-0.6 0.1h-0.3-0.6-0.3-0.9-1.1-0.4c-0.2 0-0.5-0.1-0.7-0.1-0.1 0-0.3-0.1-0.4-0.1-0.2 0-0.4-0.1-0.6-0.1-0.1 0-0.3-0.1-0.4-0.1-0.2-0.1-0.4-0.1-0.5-0.2s-0.3-0.1-0.4-0.2c-0.2-0.1-0.3-0.1-0.5-0.2-0.1-0.1-0.3-0.1-0.4-0.2s-0.3-0.2-0.4-0.3-0.2-0.2-0.4-0.2c-0.1-0.1-0.3-0.2-0.4-0.3l-1.2-1.2c-0.1-0.1-0.2-0.2-0.3-0.4-0.1-0.1-0.2-0.2-0.3-0.4-0.1-0.1-0.2-0.3-0.2-0.4-0.1-0.1-0.1-0.3-0.2-0.4s-0.1-0.3-0.2-0.4-0.1-0.3-0.2-0.4c-0.1-0.2-0.1-0.3-0.2-0.5 0-0.1-0.1-0.3-0.1-0.4 0-0.2-0.1-0.3-0.1-0.5 0-0.1-0.1-0.3-0.1-0.4-0.1-0.5-0.2-1-0.2-1.5v-1.2c0-5.6 2.6-10.3 6.6-13.1 0.7-0.5 1.3-0.9 2.1-1.2 0.7-0.3 1.5-0.6 2.2-0.9h0.1c0.4-0.1 0.7-0.2 1.1-0.3h0.1c0.4-0.1 0.7-0.1 1.1-0.2h0.1c0.4-0.1 0.8-0.1 1.1-0.1h0.3 1.2 1 0.3c0.3 0 0.5 0.1 0.8 0.1h0.2c0.3 0.1 0.6 0.1 0.9 0.2 0.1 0 0.2 0.1 0.3 0.1 0.2 0.1 0.4 0.1 0.6 0.2 0.1 0 0.2 0.1 0.3 0.1 0.2 0.1 0.5 0.2 0.7 0.3 0.1 0 0.2 0.1 0.3 0.2s0.3 0.2 0.4 0.3 0.2 0.1 0.3 0.2 0.2 0.2 0.4 0.3 0.3 0.3 0.5 0.4l0.8 0.8c0.2 0.3 0.5 0.6 0.7 0.9 0.1 0.2 0.2 0.3 0.3 0.5 0 0.1 0.1 0.1 0.1 0.2 0.8 1.7 1.3 3.5 1.2 5.4-0.1 3.2-1.3 6.7-3.5 9.6m19.7-29.3-0.6 4.2-1.1 7.2-2.8 17.8c0 0.2-0.1 0.4-0.1 0.6v0.1 0.5 0.1c0 0.1 0.1 0.2 0.1 0.3v0.1c0 0.1 0.1 0.2 0.2 0.3l0.4 0.4c0.4 0.3 0.9 0.4 1.4 0.4-0.4 0.6-0.9 1.1-1.5 1.4-0.1 0-0.1 0.1-0.2 0.1-0.1 0.1-0.3 0.2-0.4 0.3s-0.2 0.1-0.3 0.1c-0.1 0.1-0.3 0.1-0.4 0.2-0.2 0.1-0.5 0.2-0.8 0.3-0.1 0-0.2 0.1-0.4 0.1-0.2 0.1-0.4 0.1-0.6 0.1-0.1 0-0.2 0-0.4 0.1-0.2 0-0.4 0.1-0.7 0.1h-0.3-1-0.4-0.2-0.3-0.2-0.2-0.2-0.2c-0.1 0-0.2 0-0.2-0.1-0.1 0-0.1 0-0.2-0.1-0.1 0-0.2-0.1-0.2-0.1s-0.1 0-0.1-0.1c-0.1 0-0.2-0.1-0.3-0.1h-0.1c-0.4-0.2-0.8-0.5-1.1-0.9v-0.1c-0.1-0.1-0.1-0.2-0.2-0.3 0 0 0-0.1-0.1-0.1-0.1-0.1-0.1-0.2-0.1-0.3v-0.1c0-0.1-0.1-0.2-0.1-0.4v-0.1c0-0.1-0.1-0.3-0.1-0.4v-0.1-0.5c0-0.5 0-0.9 0.1-1.4l4.1-25.5c0.1-0.3 0.1-0.6 0.1-1 0.2-1.2 0.3-2.3 0.4-3.5v-2.9c0.2 0 0.3-0.1 0.5-0.1s0.4-0.1 0.6-0.1c0.3-0.1 0.7-0.1 1.1-0.2 0.2 0 0.4 0 0.6-0.1 0.6-0.1 1.2-0.1 1.9-0.2 0.5 0 0.9-0.1 1.4-0.1 1.2-0.1 2.5-0.1 3.7-0.1 0 0.8-0.1 1.8-0.1 2.8-0.3 0.7-0.4 1.1-0.4 1.4m27.3 32.1c-1.2 1.8-3.8 3-6.9 3h-1c-0.3 0-0.6-0.1-0.9-0.2s-0.6-0.2-0.9-0.3c-1.4-0.6-2.2-2-1.8-4.7l0.1-0.5c-0.1 0.3-0.3 0.5-0.5 0.8-0.3 0.5-0.7 1-1 1.4-0.4 0.4-0.8 0.8-1.2 1.1-0.2 0.2-0.4 0.3-0.6 0.5-0.4 0.3-0.9 0.6-1.3 0.8-0.8 0.4-1.7 0.8-2.6 1-0.4 0.1-0.8 0.2-1.2 0.2s-0.7 0.1-1.1 0.1h-0.7-0.2c-0.1 0-0.3 0-0.4-0.1-0.1 0-0.2 0-0.3-0.1-0.1 0-0.2-0.1-0.3-0.1s-0.2-0.1-0.3-0.1c0 0-0.1 0-0.1-0.1-2.3-1-3-3.7-2.4-7.3l1.6-10.2c0-0.3 0.1-0.6 0.1-0.8v-0.3c0-0.2 0-0.3 0.1-0.5v-0.4-0.4c0.1-0.6 0.1-1.1 0.1-1.7v-0.2-0.6-0.2-0.6c0-0.6 0-1.1-0.1-1.8 0.1 0 0.2-0.1 0.4-0.1 0.1 0 0.2 0 0.4-0.1h0.2 0.3 0.2 0.3 0.2 0.3 0.2 0.3 0.3 0.3 0.3 0.3 0.3 0.3 0.3 0.7 0.4 0.3 0.4 0.3 0.4 0.3 0.4 0.3 0.5 0.3 0.7c0.1 2.2-0.4 5.2-0.8 8l-1.4 8.6c0 0.2-0.2 1.7-0.2 2.1s0 0.9 0.1 1.3c0 0.2 0.1 0.4 0.2 0.7 0.1 0.1 0.2 0.3 0.3 0.3h0.1c0.3 0 0.8-0.3 1.4-0.9 0.9-0.9 1.6-2 2.2-3.1 0.2-0.5 0.5-0.9 0.7-1.5 0.2-0.5 0.4-1.1 0.6-1.6 0.1-0.3 0.2-0.6 0.2-0.9l0.7-4.9c0.1-0.7 0.2-1.3 0.3-1.9 0.1-0.9 0.2-1.8 0.3-2.8 0.1-0.9 0.2-1.9 0.2-3 1.2-0.1 5.9-0.7 9.5-0.6-0.1 2.7-0.4 5.4-0.9 8.1l-1.9 12c0 1.7 0.8 2.6 2.3 2.6m5.6-3.2c0-0.6 0-1.2 0.1-1.7l2-12.5c-0.4 0-0.6 0.1-0.8 0.1-0.5 0.1-0.7 0.1-0.9 0.2-0.3 0.1-0.7 0.1-1 0.2-0.3-1.8-0.3-3.6 0-5.4 0.4 0 0.8 0 1.4-0.1h2.4c0.7-1.9 1.8-3.5 2.2-5.7 0.6-0.1 1.4-0.2 2.2-0.3 0.4 0 0.6-0.1 0.9-0.1s0.6 0 1-0.1c1-0.1 2.1-0.1 3.4-0.1-0.1 1.7-0.3 3.8-0.6 6.3h1.8c2.8 0 3.9-0.3 4.8-1 0.5 0.9 0.8 1.9 0.8 2.9 0 1.4-0.4 2.3-4.8 2.4h-1-2.3l-2 12.5v0.4 0.4c0 1.7 0.8 3.1 2.1 3.1 2.1 0 2.6-1.6 3.4-1.6 1.9 0.3 3 1.4 3 1.4-1.4 2.7-5 5.2-8.8 5.2-5.8-0.1-9.1-2.7-9.3-6.5z"/>
</svg>
