<svg id="Logo-letter" version="1.1" viewBox="0 0 19 23" xmlns="http://www.w3.org/2000/svg">
    <path id="Logo-letter_Register" d="m17.77 3.2845c-0.88194-1.4208-2.7054-3.1297-6.3919-3.2025-1.0606-0.052405-1.9596-0.078608-2.7451-0.078608-1.6478-0.030163-3.2931 0.14384-4.9003 0.51823-0.59586 0.13245-1.1147 0.50554-1.4396 1.0352-0.32489 0.52963-0.42848 1.1712-0.28741 1.7801 0.093582 1.1937-0.76851 6.5477-1.0946 8.577-0.22687 1.412-0.34881 2.1661-0.38851 2.5678v0.064051c-0.049366 0.49555-0.12319 0.98821-0.22119 1.4761-0.30343 1.6857-0.68343 3.7848 0.56716 5.3308 0.49627 0.61139 1.4179 1.3422 3.074 1.3422 0.1503 0 0.3091 0 0.47075-0.017468 1.8149-0.061139 2.7904-0.36101 3.8454-1.182 0.33147-0.25788 0.58751-0.60434 0.74015-1.0015 1.0323 1.4462 2.6864 2.2849 4.4324 2.2476 0.14746 0 0.3006 0 0.4509-0.017468 1.8064-0.11937 2.8131-0.45709 3.8425-1.2868 0.85793-0.69453 1.1118-1.9182 0.60403-2.9114-0.32896-0.64342-0.67493-1.3713-2.3396-5.3366 2.6657-2.2389 2.7763-4.5389 2.8358-5.7384v-0.16304-0.16304c0.0059093-1.3563-0.35963-2.6869-1.0549-3.8401zm-6.465-0.8777c-3.8993-0.19797-5.286 0-7.0896 0.39595 0.41119 1.3829-1.3073 10.618-1.4321 11.916-0.17015 2.4106-1.7015 5.9916 1.4973 5.5316 1.5399-0.23 1.9596-0.27076 2.609-0.61139-0.42821-0.5357 0.045373-2.9114 0.52179-6.0644h1.4548l1.5285 4.7194s0.62672 2.1923 3.2328 2.003c1.8234-0.11063 2.5012-0.45418 2.6969-0.68418-0.40552-0.18051-0.60119-0.15139-3.1506-7.2552 3.4115-2.038 3.3293-4.0556 3.3945-5.2085 0-0.72785-0.11627-4.6437-5.2633-4.7427zm0.61821 5.5054c-0.39134 3.5403-2.9918 3.0861-4.0949 3.1094 0.40836-2.5737 0.63522-4.2273 0.91881-6.1896 1.6646-0.11646 3.5051 0.12228 3.1761 3.0803z" fill-rule="evenodd"/>
</svg>
