<svg version="1.1" viewBox="0 0 44.721 56.074" xmlns="http://www.w3.org/2000/svg">
    <title>ContactlessIndicator 000</title>
    <path d="m34.887 0.0019531a3.0003 3.0003 0 0 0-2.4609 4.5352c8.3981 14.546 8.3981 32.454 0 47a3.0003 3.0003 0 1 0 5.1953 3c9.4651-16.394 9.4651-36.606 0-53a3.0003 3.0003 0 0 0-2.7344-1.5352zm-11 5.5a3.0003 3.0003 0 0 0-2.4609 4.5352c6.4332 11.143 6.4332 24.857 0 36a3.0003 3.0003 0 1 0 5.1953 3c7.5002-12.991 7.5002-29.009 0-42a3.0003 3.0003 0 0 0-2.7344-1.5352zm-10.486 5.0488a3.0003 3.0003 0 0 0-2.4824 4.5234c4.511 7.8964 4.511 17.629 0 25.525a3.0003 3.0003 0 1 0 5.2109 2.9746c5.5639-9.7395 5.5639-21.735 0-31.475a3.0003 3.0003 0 0 0-2.7285-1.5488zm-10.396 5.4512a3.0003 3.0003 0 0 0-2.4824 4.6895c2.9962 4.5345 2.9962 10.157 0 14.691a3.0003 3.0003 0 1 0 5.0059 3.3086c4.2823-6.481 4.2823-14.828 0-21.309a3.0003 3.0003 0 0 0-2.5234-1.3809z" color="#000000" color-rendering="auto" dominant-baseline="auto" fill-rule="evenodd" image-rendering="auto" shape-rendering="auto" solid-color="#000000" style="font-feature-settings:normal;font-variant-alternates:normal;font-variant-caps:normal;font-variant-ligatures:normal;font-variant-numeric:normal;font-variant-position:normal;isolation:auto;mix-blend-mode:normal;shape-padding:0;text-decoration-color:#000000;text-decoration-line:none;text-decoration-style:solid;text-indent:0;text-orientation:mixed;text-transform:none;white-space:normal"/>
</svg>
